<svg xmlns="http://www.w3.org/2000/svg" viewBox="0 0 64 60" x="0px" y="0px">
    <defs>
        <style>.cls-1{stroke-width:0px;}</style>
    </defs>
    <path class="cls-1" fill="#ffffff" d="m5.00006,16.00244c-.00006,0,30.99994-.00244,30.99994-.00244,1.10303,0,2,.89697,2,2v20c.01868,1.30945,1.97882,1.31757,2-.00006,0,.00006,0-17.99994,0-17.99994h9.75977c.5249,0,1.04004.21387,1.41309.58691l6.24023,6.24023c.37305.37305.58691.88818.58691,1.41309v11.75977c0,1.10303-.89697,2-2,2h-1.35004c-1.82715-5.2868-9.47925-5.27551-11.29993.00012,0-.00012-13.70007-.00012-13.70007-.00012-1.81598-5.28253-9.48566-5.27637-11.29993.00012,0-.00012-2.35004-.00012-2.35004-.00012-1.10303,0-2-.89697-2-2v-13.99414h3c1.32178-.02271,1.30737-1.98022-.00006-2,.00006,0-7.99994,0-7.99994,0-.55225,0-1,.44775-1,1s.44775,1,1,1h3v13.99414c0,2.20557,1.79443,4,4,4h2c.28125,7.93658,11.7168,7.94397,12-.00012,0,.00012,13,.00012,13,.00012,0,3.30859,2.69141,6,6,6s6-2.69141,6-6h1c2.20557,0,4-1.79443,4-4v-11.75977c0-1.05127-.42725-2.08203-1.17285-2.82715l-6.24023-6.24023c-.74512-.74561-1.77588-1.17285-2.82715-1.17285h-9.75977c0-2.20557-1.79443-4-4-4l-31,.00244c-1.29578.02625-1.33197,1.96991.00006,2Zm18.99994,31.99756c-5.28619-.16809-5.28497-7.8327.00006-8,5.28613.16809,5.28491,7.8327-.00006,8Zm25,0c-5.28619-.16809-5.28497-7.8327.00006-8,5.28613.16809,5.28491,7.8327-.00006,8Z"/>
    <path class="cls-1" fill="#ffffff" d="m16.99994,19.00586c.00006,0-9.99994,0-9.99994,0-1.31134.02136-1.31671,1.97748.00006,2-.00006,0,9.99994,0,9.99994,0,1.31134-.02142,1.31671-1.97754-.00006-2Z"/>
    <path class="cls-1" d="m44,23c-.55225,0-1,.44775-1,1v5c0,1.6543,1.3457,3,3,3h8c1.31085-.02234,1.3175-1.97675-.00006-2,.00006,0-7.99994,0-7.99994,0-.55127,0-1-.44873-1-1v-5c0-.55225-.44775-1-1-1Z" fill="#ffffff"/>
</svg>
